<svg aria-hidden="true" style="position: absolute; width: 0; height: 0; overflow: hidden;" version="1.1" xmlns="http://www.w3.org/2000/svg" xmlns:xlink="http://www.w3.org/1999/xlink">
<defs>
<symbol id="icon-google" viewBox="0 0 32 32">
<path fill="#4285f4" style="fill: var(--color1, #4285f4)" d="M31.32 16.36c0-1.053-0.093-2.053-0.253-3.027h-15.067v6.013h8.627c-0.387 1.973-1.52 3.64-3.2 4.773v4h5.147c3.013-2.787 4.747-6.893 4.747-11.76z"></path>
<path fill="#34a853" style="fill: var(--color2, #34a853)" d="M16 32c4.32 0 7.933-1.44 10.573-3.88l-5.147-4c-1.44 0.96-3.267 1.547-5.427 1.547-4.173 0-7.707-2.813-8.973-6.613h-5.307v4.12c2.627 5.227 8.027 8.827 14.28 8.827z"></path>
<path fill="#fbbc05" style="fill: var(--color3, #fbbc05)" d="M7.027 19.053c-0.333-0.96-0.507-1.987-0.507-3.053s0.187-2.093 0.507-3.053v-4.12h-5.307c-1.093 2.16-1.72 4.587-1.72 7.173s0.627 5.013 1.72 7.173l5.307-4.12z"></path>
<path fill="#ea4335" style="fill: var(--color4, #ea4335)" d="M16 6.333c2.36 0 4.467 0.813 6.133 2.4l4.56-4.56c-2.76-2.587-6.373-4.173-10.693-4.173-6.253 0-11.653 3.6-14.28 8.827l5.307 4.12c1.267-3.8 4.8-6.613 8.973-6.613z"></path>
</symbol>
<symbol id="icon-loop" viewBox="0 0 32 32">
<path d="M20.667 18.667h-1.067l-0.4-0.4c1.333-1.467 2.133-3.467 2.133-5.6 0-4.8-3.867-8.667-8.667-8.667s-8.667 3.867-8.667 8.667c0 4.8 3.867 8.667 8.667 8.667 2.133 0 4.133-0.8 5.6-2.133l0.4 0.4v1.067l6.667 6.667 2-2-6.667-6.667zM12.667 18.667c-3.333 0-6-2.667-6-6s2.667-6 6-6c3.333 0 6 2.667 6 6s-2.667 6-6 6z"></path>
</symbol>
<symbol id="icon-shop" viewBox="0 0 32 32">
<path d="M9.333 24c-1.467 0-2.667 1.2-2.667 2.667s1.2 2.667 2.667 2.667c1.467 0 2.667-1.2 2.667-2.667s-1.2-2.667-2.667-2.667zM1.333 5.333h2.667l4.8 10.133-1.867 3.2c-0.133 0.4-0.267 0.933-0.267 1.333 0 1.467 1.2 2.667 2.667 2.667h16v-2.667h-15.467c-0.133 0-0.267-0.133-0.267-0.267v-0.133l1.2-2.267h9.867c1.067 0 1.867-0.533 2.267-1.333l4.8-8.667c0.267-0.267 0.267-0.4 0.267-0.667 0-0.8-0.533-1.333-1.333-1.333h-19.733l-0.533-1.2c-0.4-0.8-1.333-1.467-2.4-1.467h-2.667v2.667zM22.667 24c-1.467 0-2.667 1.2-2.667 2.667s1.2 2.667 2.667 2.667c1.467 0 2.667-1.2 2.667-2.667s-1.2-2.667-2.667-2.667z"></path>
</symbol>
<symbol id="icon-help" viewBox="0 0 32 32">
<path d="M16 2.667c-7.36 0-13.333 5.973-13.333 13.333s5.973 13.333 13.333 13.333c7.36 0 13.333-5.973 13.333-13.333s-5.973-13.333-13.333-13.333zM17.333 25.333h-2.667v-2.667h2.667v2.667zM20.093 15l-1.2 1.227c-0.96 0.973-1.56 1.773-1.56 3.773h-2.667v-0.667c0-1.467 0.6-2.8 1.56-3.773l1.653-1.68c0.493-0.48 0.787-1.147 0.787-1.88 0-1.467-1.2-2.667-2.667-2.667s-2.667 1.2-2.667 2.667h-2.667c0-2.947 2.387-5.333 5.333-5.333s5.333 2.387 5.333 5.333c0 1.173-0.48 2.24-1.24 3z"></path>
</symbol>
<symbol id="icon-login" viewBox="0 0 32 32">
<path d="M16 2.667c-7.36 0-13.333 5.973-13.333 13.333s5.973 13.333 13.333 13.333c7.36 0 13.333-5.973 13.333-13.333s-5.973-13.333-13.333-13.333zM16 6.667c2.213 0 4 1.787 4 4s-1.787 4-4 4c-2.213 0-4-1.787-4-4s1.787-4 4-4zM16 25.6c-3.333 0-6.28-1.707-8-4.293 0.040-2.653 5.333-4.107 8-4.107 2.653 0 7.96 1.453 8 4.107-1.72 2.587-4.667 4.293-8 4.293z"></path>
</symbol>
</defs>
</svg>
